<?xml version="1.0" encoding="UTF-8" standalone="no"?>
<svg
   xmlns:dc="http://purl.org/dc/elements/1.1/"
   xmlns:cc="http://creativecommons.org/ns#"
   xmlns:rdf="http://www.w3.org/1999/02/22-rdf-syntax-ns#"
   xmlns:svg="http://www.w3.org/2000/svg"
   xmlns="http://www.w3.org/2000/svg"
   xmlns:xlink="http://www.w3.org/1999/xlink"
   xmlns:sodipodi="http://sodipodi.sourceforge.net/DTD/sodipodi-0.dtd"
   xmlns:inkscape="http://www.inkscape.org/namespaces/inkscape"
   viewBox="0 0 650 400"
   version="1.1"
   id="svg2"
   inkscape:version="0.91 r13725"
   sodipodi:docname="CurvedSawtooth_Function.svg">
  <metadata
     id="metadata55">
    <rdf:RDF>
      <cc:Work
         rdf:about="">
        <dc:format>image/svg+xml</dc:format>
        <dc:type
           rdf:resource="http://purl.org/dc/dcmitype/StillImage" />
      </cc:Work>
    </rdf:RDF>
  </metadata>
  <defs
     id="defs53">
    <linearGradient
       inkscape:collect="always"
       id="linearGradient3318">
      <stop
         style="stop-color:#ffff00;stop-opacity:1;"
         offset="0"
         id="stop3320" />
      <stop
         style="stop-color:#ffff00;stop-opacity:0;"
         offset="1"
         id="stop3322" />
    </linearGradient>
    <radialGradient
       inkscape:collect="always"
       xlink:href="#linearGradient3318"
       id="radialGradient3324"
       cx="329.58368"
       cy="202.54942"
       fx="329.58368"
       fy="202.54942"
       r="62.321281"
       gradientTransform="matrix(0.57692324,0,0,3.0913458,134.64526,-425.3986)"
       gradientUnits="userSpaceOnUse" />
  </defs>
  <sodipodi:namedview
     pagecolor="#ffffff"
     bordercolor="#666666"
     borderopacity="1"
     objecttolerance="10"
     gridtolerance="10"
     guidetolerance="10"
     inkscape:pageopacity="0"
     inkscape:pageshadow="2"
     inkscape:window-width="1920"
     inkscape:window-height="1057"
     id="namedview51"
     showgrid="false"
     inkscape:zoom="1.668772"
     inkscape:cx="386.62513"
     inkscape:cy="182.51006"
     inkscape:window-x="0"
     inkscape:window-y="0"
     inkscape:window-maximized="1"
     inkscape:current-layer="svg2" />
  <clipPath
     id="box">
    <rect
       x="0"
       y="0"
       width="650"
       height="400"
       style="fill:none;stroke:none;"
       id="rect5" />
  </clipPath>
  <g
     clip-path="url(#box)"
     id="g7">
    <rect
       x="0.00"
       y="0.00"
       width="650.00"
       height="400.00"
       style="fill:#FFFFFF;stroke:none;"
       id="rect9" />
    <path
       d="M0.00 400.00 L650.00 400.00 M0.00 320.00 L650.00 320.00 M0.00 240.00 L650.00 240.00 M0.00 159.00 L650.00 159.00 M0.00 79.00 L650.00 79.00 M0.00 0.00 L650.00 0.00 M0.00 0.00 L0.00 400.00 M65.00 0.00 L65.00 400.00 M130.00 0.00 L130.00 400.00 M195.00 0.00 L195.00 400.00 M260.00 0.00 L260.00 400.00 M325.00 0.00 L325.00 400.00 M390.00 0.00 L390.00 400.00 M454.00 0.00 L454.00 400.00 M520.00 0.00 L520.00 400.00 M584.00 0.00 L584.00 400.00 M649.00 0.00 L649.00 400.00 "
       style="fill:none;stroke:#D0D0D0;stroke-width:1;"
       id="path11" />
    <path
       d="M0.00 0.00 L0.00 400.00 "
       style="fill:none;stroke:#000000;stroke-width:1;"
       id="path13" />
    <path
       d="M-6.50 400.00 L6.50 400.00 M-6.50 320.00 L6.50 320.00 M-6.50 240.00 L6.50 240.00 M-6.50 160.00 L6.50 160.00 M-6.50 80.00 L6.50 80.00 M-6.50 0.00 L6.50 0.00 "
       style="fill:none;stroke:#000000;stroke-width:1;"
       id="path15" />
    <path
       d="M0.00 400.00 L650.00 400.00 "
       style="fill:none;stroke:#000000;stroke-width:1;"
       id="path17" />
    <path
       d="M0.00 393.50 L0.00 406.50 M65.00 393.50 L65.00 406.50 M130.00 393.50 L130.00 406.50 M195.00 393.50 L195.00 406.50 M260.00 393.50 L260.00 406.50 M325.00 393.50 L325.00 406.50 M390.00 393.50 L390.00 406.50 M455.00 393.50 L455.00 406.50 M520.00 393.50 L520.00 406.50 M585.00 393.50 L585.00 406.50 M650.00 393.50 L650.00 406.50 "
       style="fill:none;stroke:#000000;stroke-width:1;"
       id="path19" />
    <text
       x="8.125"
       y="322.5"
       style="font:10px Droid Sans,Trebuchet MS,Arial,Helvetica,sans-serif;stroke:none;fill:#000000"
       id="text21"
       text-anchor="start">0.2</text>
    <text
       x="8.125"
       y="242.5"
       style="font:10px Droid Sans,Trebuchet MS,Arial,Helvetica,sans-serif;stroke:none;fill:#000000"
       id="text23"
       text-anchor="start">0.4</text>
    <text
       x="8.125"
       y="162.49999999999997"
       style="font:10px Droid Sans,Trebuchet MS,Arial,Helvetica,sans-serif;stroke:none;fill:#000000"
       id="text25"
       text-anchor="start">0.6</text>
    <text
       x="8.125"
       y="82.49999999999999"
       style="font:10px Droid Sans,Trebuchet MS,Arial,Helvetica,sans-serif;stroke:none;fill:#000000"
       id="text27"
       text-anchor="start">0.8</text>
    <text
       x="65"
       y="389.625"
       style="font:10px Droid Sans,Trebuchet MS,Arial,Helvetica,sans-serif;stroke:none;fill:#000000"
       id="text29"
       text-anchor="middle">0.1</text>
    <text
       x="130"
       y="389.625"
       style="font:10px Droid Sans,Trebuchet MS,Arial,Helvetica,sans-serif;stroke:none;fill:#000000"
       id="text31"
       text-anchor="middle">0.2</text>
    <text
       x="195.00000000000003"
       y="389.625"
       style="font:10px Droid Sans,Trebuchet MS,Arial,Helvetica,sans-serif;stroke:none;fill:#000000"
       id="text33"
       text-anchor="middle">0.3</text>
    <text
       x="260"
       y="389.625"
       style="font:10px Droid Sans,Trebuchet MS,Arial,Helvetica,sans-serif;stroke:none;fill:#000000"
       id="text35"
       text-anchor="middle">0.4</text>
    <text
       x="325"
       y="389.625"
       style="font:10px Droid Sans,Trebuchet MS,Arial,Helvetica,sans-serif;stroke:none;fill:#000000"
       id="text37"
       text-anchor="middle">0.5</text>
    <text
       x="390"
       y="389.625"
       style="font:10px Droid Sans,Trebuchet MS,Arial,Helvetica,sans-serif;stroke:none;fill:#000000"
       id="text39"
       text-anchor="middle">0.6</text>
    <text
       x="454.99999999999994"
       y="389.625"
       style="font:10px Droid Sans,Trebuchet MS,Arial,Helvetica,sans-serif;stroke:none;fill:#000000"
       id="text41"
       text-anchor="middle">0.7</text>
    <text
       x="520"
       y="389.625"
       style="font:10px Droid Sans,Trebuchet MS,Arial,Helvetica,sans-serif;stroke:none;fill:#000000"
       id="text43"
       text-anchor="middle">0.8</text>
    <text
       x="584.9999999999999"
       y="389.625"
       style="font:10px Droid Sans,Trebuchet MS,Arial,Helvetica,sans-serif;stroke:none;fill:#000000"
       id="text45"
       text-anchor="middle">0.9</text>
    <path
       d="M-0.00 400.00 L0.00 399.50 L0.00 399.14 L0.01 398.55 L0.02 397.90 L0.03 397.18 L0.05 396.41 L0.08 395.61 L0.11 394.78 L0.15 393.93 L0.20 393.06 L0.25 392.18 L0.31 391.28 L0.38 390.38 L0.45 389.47 L0.53 388.56 L0.62 387.63 L0.72 386.71 L0.82 385.77 L0.94 384.84 L1.05 383.90 L1.18 382.96 L1.32 382.01 L1.46 381.06 L1.61 380.11 L1.77 379.16 L1.94 378.20 L2.11 377.25 L2.29 376.29 L2.48 375.33 L2.68 374.37 L2.89 373.40 L3.10 372.44 L3.32 371.48 L3.55 370.51 L3.79 369.54 L4.04 368.58 L4.29 367.61 L4.55 366.64 L4.82 365.67 L5.10 364.69 L5.39 363.72 L5.69 362.75 L5.99 361.78 L6.30 360.80 L6.62 359.83 L6.95 358.85 L7.29 357.88 L7.64 356.90 L7.99 355.93 L8.35 354.95 L8.72 353.97 L9.10 352.99 L9.49 352.01 L9.89 351.04 L10.30 350.06 L10.71 349.08 L11.13 348.10 L11.57 347.12 L12.01 346.14 L12.46 345.16 L12.92 344.18 L13.38 343.20 L13.86 342.21 L14.35 341.23 L14.84 340.25 L15.35 339.27 L15.86 338.29 L16.38 337.30 L16.91 336.32 L17.45 335.34 L18.01 334.35 L18.57 333.37 L19.13 332.39 L19.71 331.40 L20.30 330.42 L20.90 329.44 L21.51 328.45 L22.13 327.47 L22.75 326.48 L23.39 325.50 L24.04 324.51 L24.70 323.53 L25.36 322.54 L26.04 321.56 L26.73 320.57 L27.43 319.59 L28.13 318.60 L28.85 317.62 L29.58 316.63 L30.32 315.65 L31.07 314.66 L31.83 313.67 L32.61 312.69 L33.39 311.70 L34.18 310.72 L34.99 309.73 L35.80 308.74 L36.63 307.76 L37.47 306.77 L38.32 305.78 L39.18 304.80 L40.06 303.81 L40.94 302.82 L41.84 301.84 L42.75 300.85 L43.67 299.86 L44.60 298.88 L45.55 297.89 L46.51 296.90 L47.48 295.91 L48.46 294.93 L49.46 293.94 L50.47 292.95 L51.49 291.97 L52.53 290.98 L53.58 289.99 L54.64 289.00 L55.72 288.02 L56.81 287.03 L57.92 286.04 L59.04 285.06 L60.17 284.07 L61.32 283.08 L62.48 282.09 L63.66 281.11 L64.86 280.12 L66.06 279.13 L67.29 278.14 L68.53 277.16 L69.79 276.17 L71.06 275.18 L72.35 274.20 L73.66 273.21 L74.98 272.22 L76.32 271.23 L77.68 270.25 L79.05 269.26 L80.45 268.27 L81.86 267.29 L83.29 266.30 L84.74 265.31 L86.21 264.33 L87.70 263.34 L89.22 262.35 L90.75 261.37 L92.30 260.38 L93.87 259.39 L95.47 258.41 L97.09 257.42 L98.73 256.44 L100.39 255.45 L102.08 254.46 L103.79 253.48 L105.52 252.49 L107.29 251.51 L109.07 250.52 L110.89 249.54 L112.73 248.55 L114.60 247.57 L116.50 246.58 L118.43 245.60 L120.39 244.61 L122.37 243.63 L124.37 242.66 L126.37 241.70 L128.37 240.76 L130.37 239.83 L132.37 238.91 L134.37 238.02 L136.37 237.13 L138.37 236.26 L140.37 235.41 L142.37 234.56 L144.37 233.73 L146.37 232.92 L148.37 232.11 L150.37 231.32 L152.37 230.55 L154.37 229.78 L156.37 229.03 L158.37 228.29 L160.37 227.56 L162.37 226.84 L164.37 226.13 L166.37 225.44 L168.37 224.76 L170.37 224.09 L172.37 223.43 L174.37 222.78 L176.37 222.14 L178.37 221.51 L180.37 220.89 L182.37 220.29 L184.37 219.69 L186.37 219.11 L188.37 218.53 L190.37 217.97 L192.37 217.41 L194.37 216.87 L196.37 216.33 L198.37 215.80 L200.37 215.29 L202.37 214.78 L204.37 214.29 L206.37 213.80 L208.37 213.32 L210.37 212.85 L212.37 212.39 L214.37 211.94 L216.37 211.50 L218.37 211.07 L220.37 210.65 L222.37 210.23 L224.37 209.83 L226.37 209.43 L228.37 209.04 L230.37 208.66 L232.37 208.29 L234.37 207.93 L236.37 207.58 L238.37 207.24 L240.37 206.90 L242.37 206.57 L244.37 206.25 L246.37 205.94 L248.37 205.64 L250.37 205.34 L252.37 205.06 L254.37 204.78 L256.37 204.51 L258.37 204.25 L260.37 203.99 L262.37 203.75 L264.37 203.51 L266.37 203.28 L268.37 203.06 L270.37 202.85 L272.37 202.64 L274.37 202.44 L276.37 202.25 L278.37 202.07 L280.37 201.89 L282.37 201.73 L284.37 201.57 L286.37 201.42 L288.37 201.27 L290.37 201.14 L292.37 201.01 L294.37 200.89 L296.37 200.78 L298.37 200.67 L300.37 200.57 L302.37 200.49 L304.37 200.40 L306.37 200.33 L308.37 200.26 L310.37 200.20 L312.37 200.15 L314.37 200.11 L316.37 200.07 L318.37 200.04 L320.37 200.02 L322.37 200.01 L324.37 200.00 L326.37 200.00 L328.37 200.01 L330.37 200.03 L332.37 200.05 L334.37 200.08 L336.37 200.12 L338.37 200.17 L340.37 200.22 L342.37 200.29 L344.37 200.36 L346.37 200.43 L348.37 200.52 L350.37 200.61 L352.37 200.71 L354.37 200.82 L356.37 200.93 L358.37 201.06 L360.37 201.19 L362.37 201.33 L364.37 201.47 L366.37 201.63 L368.37 201.79 L370.37 201.96 L372.37 202.14 L374.37 202.32 L376.37 202.51 L378.37 202.72 L380.37 202.92 L382.37 203.14 L384.37 203.37 L386.37 203.60 L388.37 203.84 L390.37 204.09 L392.37 204.34 L394.37 204.61 L396.37 204.88 L398.37 205.16 L400.37 205.45 L402.37 205.75 L404.37 206.06 L406.37 206.37 L408.37 206.69 L410.37 207.02 L412.37 207.36 L414.37 207.71 L416.37 208.07 L418.37 208.43 L420.37 208.81 L422.37 209.19 L424.37 209.58 L426.37 209.98 L428.37 210.39 L430.37 210.80 L432.37 211.23 L434.37 211.67 L436.37 212.11 L438.37 212.56 L440.37 213.03 L442.37 213.50 L444.37 213.98 L446.37 214.47 L448.37 214.97 L450.37 215.48 L452.37 216.00 L454.37 216.53 L456.37 217.07 L458.37 217.62 L460.37 218.18 L462.37 218.75 L464.37 219.32 L466.37 219.91 L468.37 220.51 L470.37 221.12 L472.37 221.74 L474.37 222.38 L476.37 223.02 L478.37 223.67 L480.37 224.34 L482.37 225.01 L484.37 225.70 L486.37 226.40 L488.37 227.11 L490.37 227.83 L492.37 228.56 L494.37 229.31 L496.37 230.06 L498.37 230.83 L500.37 231.62 L502.37 232.41 L504.37 233.22 L506.37 234.04 L508.37 234.88 L510.37 235.72 L512.37 236.59 L514.37 237.46 L516.37 238.35 L518.37 239.25 L520.37 240.17 L522.37 241.11 L524.37 242.05 L526.37 243.02 L528.37 244.00 L530.37 244.99 L532.37 246.01 L534.35 247.02 L536.30 248.04 L538.21 249.05 L540.10 250.07 L541.95 251.08 L543.78 252.10 L545.58 253.12 L547.35 254.13 L549.09 255.15 L550.81 256.16 L552.51 257.18 L554.18 258.19 L555.82 259.20 L557.44 260.22 L559.04 261.23 L560.62 262.25 L562.18 263.26 L563.71 264.28 L565.22 265.29 L566.71 266.30 L568.18 267.32 L569.63 268.33 L571.06 269.34 L572.48 270.36 L573.87 271.37 L575.24 272.39 L576.60 273.40 L577.94 274.41 L579.26 275.43 L580.56 276.44 L581.84 277.45 L583.11 278.47 L584.36 279.48 L585.60 280.49 L586.82 281.51 L588.02 282.52 L589.21 283.53 L590.38 284.55 L591.54 285.56 L592.68 286.57 L593.80 287.58 L594.91 288.60 L596.01 289.61 L597.09 290.62 L598.16 291.64 L599.22 292.65 L600.26 293.66 L601.28 294.68 L602.30 295.69 L603.30 296.71 L604.28 297.72 L605.26 298.73 L606.22 299.75 L607.17 300.76 L608.10 301.77 L609.02 302.79 L609.93 303.80 L610.83 304.81 L611.72 305.83 L612.59 306.84 L613.45 307.86 L614.30 308.87 L615.14 309.88 L615.97 310.90 L616.78 311.91 L617.58 312.93 L618.37 313.94 L619.15 314.96 L619.92 315.97 L620.68 316.99 L621.43 318.00 L622.16 319.02 L622.89 320.03 L623.60 321.05 L624.31 322.06 L625.00 323.08 L625.68 324.09 L626.35 325.11 L627.02 326.12 L627.67 327.14 L628.31 328.16 L628.94 329.17 L629.56 330.19 L630.17 331.21 L630.77 332.22 L631.36 333.24 L631.94 334.26 L632.51 335.27 L633.07 336.29 L633.62 337.31 L634.16 338.33 L634.69 339.35 L635.22 340.37 L635.73 341.38 L636.23 342.40 L636.72 343.42 L637.21 344.44 L637.68 345.46 L638.15 346.48 L638.60 347.50 L639.05 348.53 L639.49 349.55 L639.92 350.57 L640.34 351.59 L640.75 352.61 L641.15 353.64 L641.54 354.66 L641.92 355.68 L642.30 356.71 L642.66 357.73 L643.02 358.76 L643.36 359.79 L643.70 360.81 L644.03 361.84 L644.35 362.87 L644.66 363.90 L644.96 364.93 L645.26 365.96 L645.54 366.99 L645.82 368.02 L646.09 369.06 L646.35 370.09 L646.60 371.13 L646.84 372.17 L647.07 373.20 L647.29 374.24 L647.51 375.29 L647.72 376.33 L647.91 377.38 L648.10 378.42 L648.28 379.47 L648.46 380.53 L648.62 381.58 L648.77 382.64 L648.92 383.71 L649.06 384.77 L649.19 385.85 L649.31 386.93 L649.42 388.01 L649.52 389.11 L649.61 390.22 L649.70 391.34 L649.77 392.48 L649.84 393.64 L649.89 394.85 L649.94 396.13 L649.98 397.55 "
       style="fill:none;stroke:#FC4112;stroke-width:1;"
       id="path47" />
    <path
       d="M325.00 200.50 L325.00 200.70 L325.01 201.30 L325.02 201.92 L325.03 202.63 L325.05 203.39 L325.07 204.18 L325.10 205.01 L325.14 205.85 L325.18 206.72 L325.23 207.59 L325.29 208.48 L325.36 209.38 L325.43 210.29 L325.51 211.21 L325.60 212.13 L325.69 213.05 L325.80 213.99 L325.91 214.92 L326.02 215.86 L326.15 216.80 L326.28 217.75 L326.42 218.69 L326.57 219.64 L326.73 220.60 L326.89 221.55 L327.06 222.51 L327.24 223.46 L327.43 224.42 L327.63 225.38 L327.83 226.35 L328.04 227.31 L328.26 228.28 L328.49 229.24 L328.73 230.21 L328.97 231.18 L329.23 232.14 L329.49 233.11 L329.75 234.08 L330.03 235.06 L330.32 236.03 L330.61 237.00 L330.91 237.97 L331.22 238.95 L331.54 239.92 L331.87 240.90 L332.20 241.87 L332.55 242.85 L332.90 243.82 L333.26 244.80 L333.63 245.78 L334.01 246.76 L334.39 247.73 L334.79 248.71 L335.19 249.69 L335.60 250.67 L336.02 251.65 L336.45 252.63 L336.89 253.61 L337.34 254.59 L337.80 255.57 L338.26 256.55 L338.74 257.53 L339.22 258.51 L339.71 259.50 L340.22 260.48 L340.73 261.46 L341.25 262.44 L341.78 263.43 L342.31 264.41 L342.86 265.39 L343.42 266.38 L343.99 267.36 L344.56 268.34 L345.15 269.33 L345.75 270.31 L346.35 271.29 L346.97 272.28 L347.59 273.26 L348.23 274.25 L348.87 275.23 L349.52 276.22 L350.19 277.20 L350.86 278.19 L351.55 279.17 L352.25 280.16 L352.95 281.14 L353.67 282.13 L354.39 283.12 L355.13 284.10 L355.88 285.09 L356.64 286.07 L357.41 287.06 L358.19 288.04 L358.98 289.03 L359.78 290.02 L360.59 291.00 L361.42 291.99 L362.25 292.98 L363.10 293.96 L363.96 294.95 L364.83 295.94 L365.71 296.92 L366.61 297.91 L367.51 298.90 L368.43 299.88 L369.36 300.87 L370.31 301.86 L371.26 302.84 L372.23 303.83 L373.21 304.82 L374.20 305.81 L375.21 306.79 L376.23 307.78 L377.26 308.77 L378.31 309.75 L379.37 310.74 L380.44 311.73 L381.53 312.72 L382.63 313.70 L383.75 314.69 L384.88 315.68 L386.02 316.67 L387.18 317.65 L388.36 318.64 L389.55 319.63 L390.75 320.61 L391.97 321.60 L393.21 322.59 L394.46 323.58 L395.73 324.56 L397.02 325.55 L398.32 326.54 L399.64 327.52 L400.97 328.51 L402.33 329.50 L403.70 330.49 L405.09 331.47 L406.50 332.46 L407.92 333.45 L409.37 334.43 L410.83 335.42 L412.32 336.41 L413.82 337.39 L415.35 338.38 L416.90 339.37 L418.47 340.35 L420.05 341.34 L421.67 342.32 L423.30 343.31 L424.96 344.30 L426.64 345.28 L428.35 346.27 L430.08 347.25 L431.83 348.24 L433.61 349.22 L435.42 350.21 L437.25 351.19 L439.12 352.18 L441.01 353.16 L442.93 354.15 L444.88 355.13 L446.86 356.12 L448.86 357.09 L450.86 358.06 L452.86 359.00 L454.86 359.94 L456.86 360.85 L458.86 361.75 L460.86 362.64 L462.86 363.52 L464.86 364.38 L466.86 365.22 L468.86 366.05 L470.86 366.87 L472.86 367.68 L474.86 368.47 L476.86 369.26 L478.86 370.02 L480.86 370.78 L482.86 371.52 L484.86 372.26 L486.86 372.98 L488.86 373.69 L490.86 374.38 L492.86 375.07 L494.86 375.74 L496.86 376.41 L498.86 377.06 L500.86 377.70 L502.86 378.33 L504.86 378.95 L506.86 379.56 L508.86 380.16 L510.86 380.74 L512.86 381.32 L514.86 381.89 L516.86 382.45 L518.86 383.00 L520.86 383.53 L522.86 384.06 L524.86 384.58 L526.86 385.09 L528.86 385.59 L530.86 386.08 L532.86 386.56 L534.86 387.03 L536.86 387.49 L538.86 387.94 L540.86 388.39 L542.86 388.82 L544.86 389.24 L546.86 389.66 L548.86 390.07 L550.86 390.47 L552.86 390.86 L554.86 391.24 L556.86 391.61 L558.86 391.97 L560.86 392.33 L562.86 392.68 L564.86 393.02 L566.86 393.35 L568.86 393.67 L570.86 393.98 L572.86 394.28 L574.86 394.58 L576.86 394.87 L578.86 395.15 L580.86 395.42 L582.86 395.69 L584.86 395.94 L586.86 396.19 L588.86 396.43 L590.86 396.66 L592.86 396.88 L594.86 397.10 L596.86 397.31 L598.86 397.51 L600.86 397.70 L602.86 397.88 L604.86 398.06 L606.86 398.23 L608.86 398.39 L610.86 398.54 L612.86 398.69 L614.86 398.83 L616.86 398.96 L618.86 399.08 L620.86 399.19 L622.86 399.30 L624.86 399.40 L626.86 399.49 L628.86 399.58 L630.86 399.65 L632.86 399.72 L634.86 399.78 L636.86 399.84 L638.86 399.88 L640.86 399.92 L642.86 399.95 L644.86 399.97 L646.86 399.99 L648.86 400.00 "
       style="fill:none;stroke:#2F21CC;stroke-width:1;"
       id="path49" />
  </g>
  <text
     xml:space="preserve"
     style="font-style:normal;font-weight:normal;font-size:17.16750336px;line-height:125%;font-family:sans-serif;letter-spacing:0px;word-spacing:0px;fill:#000000;fill-opacity:1;stroke:none;stroke-width:1px;stroke-linecap:butt;stroke-linejoin:miter;stroke-opacity:1"
     x="93.210091"
     y="285.00284"
     id="text3242"
     sodipodi:linespacing="125%"
     transform="scale(0.86639053,1.1542139)"><tspan
       sodipodi:role="line"
       id="tspan3244"
       x="93.210091"
       y="285.00284">0.5 * (1-(x-0.5)*(x-0.5)*4)^0.5</tspan></text>
  <path
     style="opacity:1;fill:#ffffff;fill-opacity:1;stroke:none;stroke-width:1.11600006;stroke-linecap:butt;stroke-linejoin:miter;stroke-miterlimit:3.0999999;stroke-dasharray:none;stroke-dashoffset:0;stroke-opacity:0.98823529"
     d="m 331.95827,196.03959 c 66.69041,2.54367 135.98641,11.2858 195.56563,43.11103 33.77489,17.84549 67.67876,22.44985 86.45228,57.82843 6.57856,9.55516 17.64185,27.52551 25.25,40.97521 12.03354,21.27289 10.63352,43.53008 10.91734,63.06056 C 647.19306,393.156 642.68568,381.06146 639.02618,373.2046 626.97979,347.34126 617.72589,322.54288 598.36019,300.60758 576.50477,265.60376 534.54832,255.97377 502.16691,234.0851 446.28866,211.58745 386.03943,203.51787 326.24354,200.65514 l 2.62459,-2.55251 z"
     id="path3248"
     inkscape:connector-curvature="0"
     sodipodi:nodetypes="cccscsccccc" />
  <text
     xml:space="preserve"
     style="font-style:normal;font-weight:normal;font-size:18.57553291px;line-height:125%;font-family:sans-serif;letter-spacing:0px;word-spacing:0px;fill:#000000;fill-opacity:1;stroke:none;stroke-width:1px;stroke-linecap:butt;stroke-linejoin:miter;stroke-opacity:1"
     x="387.69107"
     y="204.97179"
     id="text3254"
     sodipodi:linespacing="125%"
     transform="scale(0.87783418,1.1391673)"><tspan
       sodipodi:role="line"
       id="tspan3256"
       x="387.69107"
       y="204.97179">-0.5 * (1-(x-1.0)*(x-1.0)*4)^0.5+0.5</tspan></text>
  <text
     xml:space="preserve"
     style="font-style:normal;font-weight:normal;font-size:40px;line-height:125%;font-family:sans-serif;letter-spacing:0px;word-spacing:0px;fill:#000000;fill-opacity:1;stroke:none;stroke-width:1px;stroke-linecap:butt;stroke-linejoin:miter;stroke-opacity:1"
     x="119.8486"
     y="299.92642"
     id="text3258"
     sodipodi:linespacing="125%"><tspan
       sodipodi:role="line"
       id="tspan3260"
       x="119.8486"
       y="299.92642">Charge</tspan></text>
  <text
     xml:space="preserve"
     style="font-style:normal;font-weight:normal;font-size:40px;line-height:125%;font-family:sans-serif;letter-spacing:0px;word-spacing:0px;fill:#000000;fill-opacity:1;stroke:none;stroke-width:1px;stroke-linecap:butt;stroke-linejoin:miter;stroke-opacity:1"
     x="405.08829"
     y="198.65434"
     id="text3262"
     sodipodi:linespacing="125%"><tspan
       sodipodi:role="line"
       id="tspan3264"
       x="405.08829"
       y="198.65434">Discharge</tspan></text>
  <rect
     style="opacity:0.75700001;fill:url(#radialGradient3324);fill-opacity:1;stroke:none;stroke-width:1.11600006;stroke-linecap:butt;stroke-linejoin:miter;stroke-miterlimit:3.0999999;stroke-dasharray:none;stroke-dashoffset:0;stroke-opacity:0.98823529"
     id="rect3266"
     width="124.64256"
     height="385.31326"
     x="262.46844"
     y="8.0950546"
     ry="8.3894024"
     rx="8.3894024" />
  <text
     xml:space="preserve"
     style="font-style:normal;font-weight:normal;font-size:18.06016159px;line-height:125%;font-family:sans-serif;letter-spacing:0px;word-spacing:0px;fill:#000000;fill-opacity:1;stroke:none;stroke-width:1px;stroke-linecap:butt;stroke-linejoin:miter;stroke-opacity:1"
     x="358.63629"
     y="65.486794"
     id="text3268"
     sodipodi:linespacing="125%"
     transform="scale(0.92100453,1.085771)"><tspan
       sodipodi:role="line"
       id="tspan3270"
       x="358.63629"
       y="65.486794"
       style="text-align:center;text-anchor:middle">meta-stable</tspan><tspan
       sodipodi:role="line"
       x="358.63629"
       y="88.061996"
       id="tspan3272"
       style="text-align:center;text-anchor:middle">attractor</tspan><tspan
       sodipodi:role="line"
       x="358.63629"
       y="110.6372"
       id="tspan3274"
       style="text-align:center;text-anchor:middle">region</tspan></text>
</svg>
